<svg role="img" viewBox="0 0 24 24" xmlns="http://www.w3.org/2000/svg">
  <title>React Native</title>
  <path fill="#61DAFB" d="M14.23 12.004a2.236 2.236 0 0 1-2.235 2.236 2.236 2.236 0 0 1-2.236-2.236 2.236 2.236 0 0 1 2.235-2.236 2.236 2.236 0 0 1 2.236 2.236zm2.648-10.69c-1.346 0-3.107.96-4.888 2.622-1.78-1.653-3.542-2.602-4.887-2.602-.41 0-.783.093-1.106.278-1.375.79-1.653 3.053-.82 5.63-.586.97-1.036 2.024-1.316 3.1-.21.86-.333 1.733-.333 2.592 0 .794.118 1.568.307 2.312.368 1.458.958 2.796 1.745 3.987 1.13 1.697 2.514 2.948 3.977 3.584.55.24 1.1.365 1.635.365 1.346 0 3.107-.96 4.888-2.624 1.78 1.654 3.542 2.603 4.887 2.603.41 0 .783-.09 1.106-.275 1.374-.792 1.653-3.053.82-5.633.587-.97 1.037-2.024 1.316-3.098.21-.861.333-1.734.333-2.595 0-.794-.118-1.566-.307-2.312-.368-1.456-.958-2.794-1.746-3.986-1.13-1.7-2.513-2.95-3.977-3.586a4.286 4.286 0 0 0-1.634-.368zm-.005 1.09v.006c.225 0 .43.05.607.128.833.382 1.637 1.55 2.246 2.805a16.588 16.588 0 0 1 1.377 3.18c.172.68.28 1.37.28 2.037 0 .69-.11 1.36-.28 2.03-.336 1.37-.83 2.7-1.377 3.183-.61 1.256-1.41 2.422-2.244 2.805-.176.078-.38.126-.607.126-.822 0-2.189-.844-3.644-2.168-1.456 1.324-2.823 2.168-3.645 2.168-.225 0-.43-.048-.607-.126-.833-.383-1.637-1.55-2.246-2.805a16.614 16.614 0 0 1-1.377-3.181 12.257 12.257 0 0 1-.28-2.037c0-.69.11-1.358.28-2.028.336-1.37.83-2.7 1.377-3.182.61-1.255 1.41-2.422 2.244-2.805.176-.078.38-.126.607-.126.822 0 2.189.844 3.644 2.168 1.456-1.324 2.823-2.168 3.645-2.168z"/>
</svg>
